<svg xmlns="http://www.w3.org/2000/svg" xmlns:xlink="http://www.w3.org/1999/xlink" version="1.1" x="0px" y="0px" viewBox="0 0 100 125" enable-background="new 0 0 100 100" xml:space="preserve"><path d="M25.34,88.942C20.489,73.523,3.447,53.774,3.447,53.774c0.064,0.121,6.442,12.315,13.73,31.062  c1.716,4.42,3.229,8.931,4.493,13.409l0.156,0.554h5.704l-0.128-0.874C26.952,94.884,26.259,91.86,25.34,88.942"/><path d="M56.038,60.365c0.033,0.161,3.431,16.174,3.279,32.307c-0.019,1.672-0.051,3.47-0.1,5.345l-0.021,0.782h4.988l0.052-0.706  c0.093-1.281,0.144-2.459,0.153-3.504C64.488,83.05,56.038,60.365,56.038,60.365"/><path d="M98.048,28.121c0,0-11.488,13.522-14.897,31.918c-1.062,5.744-1.506,9.829-1.717,13.827  c-0.021,0.445-0.045,0.889-0.068,1.33c-0.522-4.992-1.577-9.864-3.477-13.899c-7.562-16.062-19.285-27.387-25.319-31.08  c-0.565-0.344-1.003-0.33-1.301,0.038c-0.485,0.599-0.31,0.788,1.871,3.101c4.139,4.392,14.252,14.492,19.326,26.306  c6.541,15.232,1.396,37.479,1.022,37.792l-0.115,0.097c0.561-3.099-0.075-9.98-3.288-21.632C64.393,55.281,47.803,38.1,47.803,38.1  c0.15,0.303,15.145,30.412,17.881,37.485c2.239,5.805,1.819,18.625,1.638,22.416l-0.037,0.798h4.605h1.221h1.154h4.279h2.335  l0.076-0.675c0.145-1.265,3.614-17.692,4.531-26.119c2.553-23.409,11.438-41.643,12.442-43.647L98.048,28.121z"/><path d="M22.578,62.07c-3.212-13.745,1.419-23.431,1.465-23.527c0,0-11.952,15.667-0.286,43.537  c4.625,11.045,8.292,15.228,9.654,16.511l0.22,0.208h3.397L36.5,97.704C34.689,93.957,25.512,74.629,22.578,62.07"/><path d="M48.432,98.799h2.173l-0.36-1.017c-0.833-2.349-2.992-8.648-5.242-16.907c1.354,2.288,2.398,4.055,2.897,4.897  c2.285,3.867,3.684,11.536,3.835,12.396l0.11,0.63h5.71h1.35l0.039-0.545c0.018-0.26,0.418-6.42-1.733-13.351  c-2.122-6.834-9.485-24.267-9.56-24.441l-1.428-3.375l-0.037,3.663c-0.001,0.239-0.008,5.912,4.259,16.688  c0.97,2.448,1.862,4.874,2.664,7.167c-0.182-0.329-0.365-0.657-0.562-0.992c-2.141-3.669-6.389-9.645-10.628-15.385  c-2.128-9.955-3.744-21.012-3.492-31.005c0.292-11.585,2.882-20.001,5.002-25.021c2.298-5.438,6.834-10.902,6.834-10.902  s-17.133,6.3-15.552,47.587c0.126,3.273,0.484,7.169,1.186,11.314c-3.364-4.423-7.186-6.848-7.186-6.848s4.229,7.142,8.748,14.777  c0.877,3.972,1.882,7.967,2.893,11.711c-6.037-9.521-15.348-17.409-15.348-17.409c0.064,0.102,6.572,10.312,14.072,26.004  c1.525,3.188,2.95,6.511,4.235,9.87l0.186,0.491h2.528H48.432z"/></svg>